<svg xmlns="http://www.w3.org/2000/svg" data-name="Layer 1" viewBox="0 0 1281 1281">
  <g fill="#e71324">
    <path d="M542.6 600.7c-15.8-8.1-33.1-12.2-52.1-12.2-11.9 0-23.2 1.6-33.8 4.8-10.6 3.2-20.3 7.8-29.1 13.8l5.7-72.1h135.4c2.7-.1 5-1 6.8-2.9 1.8-1.8 2.8-4.2 2.9-6.9v-33.8c-.1-2.7-1-5-2.9-6.9-1.8-1.9-4.1-2.8-6.8-2.9H397.2c-2.7.1-4.9 1-6.6 2.9s-2.8 4.1-3 6.9L377 640.8c-.2 2.2.3 4.2 1.5 5.8s3.1 2.8 5.5 3.5l33.9 7.6c2 .5 3.9.5 5.7.2 1.9-.4 3.8-1.3 5.7-2.8 5.3-4.7 12.1-8.8 20.2-12.5s17.6-5.6 28.1-5.8c16.1.1 29.9 4.8 41.2 14.1 11.3 9.3 17.2 22.7 17.8 40.2-.4 16.4-6.2 29.8-17.7 40.3-11.4 10.5-26.2 15.9-44.4 16.2-14.7-.1-27.1-3.1-37.2-9s-19.4-14-27.9-24.4c-2.1-2.6-4.9-4.3-8.4-5.1s-7.2.3-11 3.3l-21.1 17.4c-2.9 2.3-4.7 4.9-5.4 8-.7 3-.1 6 1.9 9 10.3 16.2 25 28.9 43.9 38.2s40.8 14 65.6 14.2c24.2-.2 45.3-5.3 63.2-15.1s31.9-23 41.8-39.5c9.9-16.5 14.9-34.9 15.1-55.2-.2-21-5.1-39-14.6-54.1s-22-26.5-37.8-34.6ZM868.3 501.2c-27.1-16.9-58-25.5-92.8-25.7-31 .3-58.7 7.5-83.3 21.6-24.5 14.1-44 33.3-58.3 57.6s-21.7 51.9-22 82.7c.3 30.8 7.2 58.4 20.6 82.7 13.5 24.3 32 43.5 55.4 57.6 23.5 14.1 50.3 21.3 80.5 21.6 25.2-.3 46.1-4.8 62.8-13.7 16.7-8.8 29.9-20.3 39.7-34.3v32c.1 2.7 1 5 2.9 6.9 1.8 1.8 4.1 2.8 6.8 2.9h34.7c2.7-.1 5-1 6.8-2.9 1.8-1.8 2.8-4.2 2.9-6.9V646.8c-.1-2.7-1-5-2.9-6.7-1.8-1.7-4.1-2.6-6.8-2.7H783c-2.7.1-5 .9-6.8 2.7-1.8 1.7-2.8 4-2.9 6.7v29.3c.1 2.5 1 4.7 2.9 6.5 1.8 1.8 4.1 2.8 6.8 2.8h84.5c-7.7 17.9-19.5 32.2-35.3 43s-34.4 16.4-55.8 16.6c-30.5-.6-55.1-10.7-73.9-30.4s-28.5-45.1-29-76.4c.6-30.8 10.3-56.2 29.1-76.4s43.1-30.6 73-31.3c22.4.2 41.4 5.4 56.8 15.5 15.4 10.1 27.5 23.6 36 40.6.6 1.7 1.5 3.3 2.9 4.8 1.3 1.5 3.6 2 6.8 1.4l43.5-11.1c3.2-1 5-2.5 5.4-4.4s.2-3.7-.5-5.4c-11.8-30.2-31.2-53.8-58.2-70.7Z"/>
    <path d="M1099.5 497.1c-3-9.2-6-18.4-9.5-27.4-3.4-9.1-7.2-18-11.1-26.8-4-8.8-8.2-17.5-12.8-26.1-1.1-2.1-2.2-4.3-3.4-6.4l-3.5-6.3-1.8-3.2-1.8-3.1-3.7-6.2c-5.1-8.2-10.3-16.4-15.8-24.4-5.4-8-11.3-15.7-17.2-23.4-6-7.6-12.2-15.1-18.6-22.3-6.4-7.3-13.1-14.3-19.9-21.2-6.9-6.8-13.9-13.5-21.2-19.9-7.2-6.5-14.7-12.6-22.3-18.6-7.7-5.9-15.4-11.8-23.4-17.2-7.9-5.6-16.1-10.7-24.3-15.8l-6.2-3.7-3.1-1.8-3.2-1.8-6.3-3.5c-2.1-1.2-4.3-2.3-6.4-3.4-8.5-4.6-17.3-8.7-26.1-12.8-8.9-3.9-17.8-7.7-26.8-11.1-9-3.5-18.2-6.5-27.4-9.5-9.3-2.8-18.6-5.5-28-7.8-18.8-4.6-37.9-8.2-57.1-10.4-19.2-2.3-38.6-3.4-58-3.5-19.4 0-38.7 1.2-58 3.5-19.2 2.2-38.3 5.8-57.1 10.4-9.4 2.2-18.7 4.9-28 7.8-9.2 3-18.4 6-27.4 9.5-9.1 3.4-18 7.2-26.8 11.1-8.8 4-17.5 8.2-26.1 12.8-2.1 1.1-4.3 2.2-6.4 3.4l-6.3 3.5-3.2 1.8-3.1 1.8-6.2 3.7c-8.2 5.1-16.4 10.3-24.4 15.8-8 5.4-15.7 11.3-23.4 17.2-7.6 6-15.1 12.2-22.3 18.6-7.3 6.4-14.3 13.1-21.2 19.9-6.8 6.9-13.5 13.9-19.9 21.2-6.5 7.2-12.6 14.7-18.6 22.3-5.9 7.7-11.8 15.4-17.2 23.4-5.6 7.9-10.7 16.1-15.8 24.4l-3.7 6.2-1.8 3.1-1.8 3.2-3.5 6.3c-1.2 2.1-2.3 4.3-3.4 6.4-4.6 8.5-8.7 17.3-12.8 26.1-3.9 8.9-7.7 17.8-11.1 26.8-3.5 9-6.5 18.2-9.5 27.4-2.8 9.3-5.5 18.6-7.8 28-9.3 37.6-13.8 76.3-13.9 115 .1 38.7 4.6 77.5 13.9 115 2.2 9.4 4.9 18.7 7.8 28 3 9.2 6 18.4 9.5 27.4 3.4 9.1 7.2 18 11.1 26.8 4 8.8 8.2 17.5 12.8 26.1 1.1 2.1 2.2 4.3 3.4 6.4l3.5 6.3 1.8 3.2 1.8 3.1 3.7 6.2c5.1 8.2 10.3 16.4 15.8 24.3 5.4 8 11.3 15.7 17.2 23.4 6 7.6 12.2 15.1 18.6 22.3 6.4 7.3 13.1 14.3 19.9 21.2 6.9 6.8 13.9 13.5 21.2 19.9 7.2 6.5 14.7 12.6 22.3 18.6 7.7 5.9 15.4 11.8 23.4 17.2 7.9 5.6 16.1 10.7 24.4 15.8l6.2 3.7 3.1 1.9 3.2 1.8 6.3 3.5c2.1 1.2 4.3 2.3 6.4 3.4 8.5 4.6 17.3 8.7 26.1 12.8 8.9 3.9 17.8 7.7 26.8 11.1 9 3.5 18.2 6.5 27.4 9.5 9.3 2.8 18.6 5.5 28 7.8 18.8 4.6 37.9 8.1 57.1 10.4 19.2 2.3 38.6 3.4 58 3.5 19.4 0 38.7-1.2 58-3.5 19.2-2.2 38.3-5.8 57.1-10.4 9.4-2.2 18.7-5 28-7.8 9.2-3 18.4-6 27.4-9.5 9.1-3.4 18-7.2 26.8-11.1 8.8-4 17.5-8.2 26.1-12.8 2.1-1.1 4.3-2.2 6.4-3.4l6.3-3.5 3.2-1.8 3.1-1.9 6.2-3.7c8.2-5.1 16.4-10.3 24.3-15.8 8-5.4 15.7-11.3 23.4-17.2 7.6-6 15.1-12.2 22.3-18.6 7.3-6.4 14.3-13.1 21.2-19.9 6.8-6.9 13.5-13.9 19.9-21.2 6.5-7.2 12.6-14.7 18.6-22.3 5.9-7.7 11.8-15.4 17.2-23.4 5.6-7.9 10.7-16.1 15.8-24.3l3.7-6.2 1.8-3.1 1.8-3.2 3.5-6.3c1.2-2.1 2.3-4.3 3.4-6.4 4.5-8.5 8.7-17.3 12.8-26.1 3.9-8.9 7.7-17.8 11.1-26.8 3.5-9 6.5-18.2 9.5-27.4 2.8-9.3 5.5-18.6 7.8-28 9.3-37.6 13.8-76.3 13.9-115-.1-38.7-4.6-77.5-13.9-115-2.3-9.5-5-18.8-7.8-28Zm-12 253.2c-2.2 9-4.7 17.9-7.4 26.8-2.8 8.8-5.8 17.6-9.1 26.3-3.2 8.7-6.9 17.2-10.6 25.7-3.9 8.4-7.8 16.8-12.2 25-1.1 2-2.1 4.1-3.3 6.1l-3.4 6.1-1.7 3-1.8 3-3.5 6c-4.9 7.9-9.8 15.7-15.1 23.3-5.2 7.7-10.8 15.1-16.5 22.4-5.8 7.2-11.7 14.4-17.8 21.3-6.1 7-12.5 13.7-19 20.3-6.6 6.5-13.3 12.9-20.3 19-6.9 6.2-14.1 12.1-21.3 17.8-7.3 5.7-14.7 11.3-22.4 16.5-7.6 5.3-15.4 10.3-23.3 15.1l-6 3.5-3 1.8-3 1.7-6.1 3.4c-2 1.1-4.1 2.2-6.1 3.3-8.2 4.4-16.5 8.3-25 12.2-8.5 3.7-17 7.4-25.7 10.6-8.6 3.3-17.4 6.3-26.3 9.1-8.9 2.7-17.8 5.3-26.8 7.4-18 4.4-36.2 7.8-54.7 10-18.4 2.2-37 3.3-55.5 3.3s-37.1-1.2-55.5-3.3c-18.4-2.2-36.7-5.6-54.7-10-9-2.2-17.9-4.7-26.8-7.4-8.8-2.8-17.6-5.8-26.3-9.1-8.7-3.2-17.2-6.9-25.7-10.6-8.4-3.9-16.8-7.8-25-12.2-2-1.1-4.1-2.1-6.1-3.3l-6.1-3.4-3-1.7-3-1.8-6-3.5c-7.9-4.9-15.7-9.8-23.3-15.1-7.7-5.2-15.1-10.8-22.4-16.5-7.2-5.8-14.4-11.7-21.3-17.8-7-6.1-13.7-12.5-20.3-19-6.5-6.6-12.9-13.3-19-20.3-6.2-6.9-12.1-14.1-17.8-21.3-5.7-7.3-11.3-14.7-16.5-22.4-5.3-7.6-10.3-15.4-15.1-23.3l-3.5-6-1.8-3-1.7-3-3.4-6.1c-1.1-2-2.2-4.1-3.3-6.1-4.4-8.2-8.3-16.5-12.2-25-3.7-8.5-7.4-17-10.6-25.7-3.3-8.6-6.3-17.4-9.1-26.3-2.7-8.9-5.3-17.8-7.4-26.8-8.9-36-13.2-73.1-13.3-110.2.1-37.1 4.4-74.2 13.3-110.2 2.2-9 4.7-17.9 7.4-26.8 2.8-8.8 5.8-17.6 9.1-26.3 3.2-8.7 6.9-17.2 10.6-25.7 3.9-8.4 7.8-16.8 12.2-25 1.1-2 2.1-4.1 3.3-6.1l3.4-6.1 1.7-3 1.8-3 3.5-6c4.9-7.9 9.8-15.7 15.1-23.3 5.2-7.7 10.8-15.1 16.5-22.4 5.8-7.2 11.7-14.4 17.8-21.3 6.1-7 12.5-13.7 19-20.3 6.6-6.5 13.3-12.9 20.3-19 6.9-6.2 14.1-12.1 21.3-17.8 7.4-5.7 14.7-11.3 22.4-16.5 7.6-5.3 15.4-10.3 23.3-15.1l6-3.5 3-1.8 3-1.7 6.1-3.4c2-1.1 4.1-2.2 6.1-3.3 8.2-4.4 16.5-8.3 25-12.2 8.5-3.7 17-7.4 25.7-10.6 8.6-3.3 17.4-6.3 26.3-9.1 8.9-2.7 17.8-5.3 26.8-7.4 18-4.4 36.2-7.8 54.7-10 18.4-2.2 37-3.3 55.5-3.3s37.1 1.2 55.5 3.3c18.4 2.2 36.7 5.6 54.7 10 9 2.2 17.9 4.7 26.8 7.4 8.8 2.8 17.6 5.8 26.3 9.1 8.7 3.2 17.2 6.9 25.7 10.6 8.4 3.9 16.8 7.8 25 12.2 2 1.1 4.1 2.1 6.1 3.3l6.1 3.4 3 1.7 3 1.8 6 3.5c7.9 4.9 15.7 9.8 23.3 15.1 7.7 5.2 15.1 10.8 22.4 16.5 7.2 5.8 14.4 11.7 21.3 17.8 7 6.1 13.7 12.5 20.3 19 6.5 6.6 12.9 13.3 19 20.3 6.2 6.9 12.1 14.1 17.8 21.3 5.7 7.4 11.3 14.7 16.5 22.4 5.3 7.6 10.3 15.4 15.1 23.3l3.5 6 1.8 3 1.7 3 3.4 6.1c1.1 2 2.2 4.1 3.3 6.1 4.4 8.2 8.3 16.5 12.2 25 3.7 8.5 7.4 17 10.6 25.7 3.3 8.6 6.3 17.4 9.1 26.3 2.7 8.9 5.3 17.8 7.4 26.8 8.9 36 13.2 73.1 13.3 110.2-.1 37.1-4.4 74.2-13.3 110.2Z"/>
    <path d="M1146.1 515.5c-2.4-10.2-5.4-20.3-8.4-30.3-3.2-10-6.5-20-10.3-29.7-3.7-9.8-7.8-19.5-12-29.1-4.4-9.5-8.9-19-13.8-28.3-1.2-2.3-2.4-4.6-3.7-7l-3.8-6.9-1.9-3.4-2-3.4-4-6.8c-5.5-8.9-11.1-17.8-17.1-26.4-5.9-8.7-12.2-17-18.6-25.3-6.5-8.2-13.2-16.3-20.2-24.1-6.9-7.9-14.2-15.4-21.5-22.9-7.5-7.4-15-14.6-22.9-21.5-7.8-7-15.9-13.6-24.1-20.2-8.3-6.4-16.7-12.7-25.3-18.6-8.6-6-17.5-11.6-26.4-17.1l-6.8-4-3.4-2-3.4-1.9-6.9-3.8c-2.3-1.3-4.6-2.5-7-3.7-9.3-4.9-18.7-9.4-28.3-13.8-9.6-4.2-19.2-8.4-29.1-12-9.8-3.8-19.7-7.1-29.7-10.3-10-3-20.1-5.9-30.3-8.4-20.4-5-41-8.8-61.9-11.3-20.8-2.5-41.8-3.7-62.7-3.8-21 0-41.9 1.3-62.7 3.8-20.8 2.4-41.5 6.3-61.9 11.3-10.2 2.4-20.3 5.4-30.3 8.4-10 3.2-20 6.5-29.7 10.3-9.8 3.7-19.5 7.8-29.1 12-9.5 4.4-19 8.9-28.3 13.8-2.3 1.2-4.6 2.4-7 3.7l-6.9 3.8-3.4 1.9-3.4 2-6.8 4c-8.9 5.5-17.8 11.1-26.4 17.1-8.7 5.9-17 12.2-25.3 18.6-8.2 6.5-16.3 13.2-24.1 20.2-7.9 6.9-15.4 14.2-22.9 21.5-7.4 7.5-14.6 15-21.5 22.9-7 7.8-13.6 15.9-20.2 24.1-6.4 8.3-12.7 16.7-18.6 25.3-6 8.6-11.6 17.4-17.1 26.4l-4 6.8-2 3.4-1.9 3.4-3.8 6.9c-1.3 2.3-2.5 4.6-3.7 7-4.9 9.3-9.4 18.7-13.8 28.3-4.2 9.6-8.4 19.2-12 29.1-3.8 9.8-7.1 19.7-10.3 29.7-3 10-5.9 20.1-8.4 30.3-10.1 40.7-15 82.7-15 124.6.1 41.9 5 83.9 15.1 124.6 2.4 10.2 5.4 20.3 8.4 30.3 3.2 10 6.5 20 10.3 29.7 3.7 9.8 7.8 19.5 12 29.1 4.4 9.5 8.9 19 13.8 28.3 1.2 2.3 2.4 4.7 3.7 7l3.8 6.9 1.9 3.4 2 3.4 4 6.8c5.5 8.9 11.1 17.8 17.1 26.4 5.9 8.7 12.2 17 18.6 25.3 6.5 8.2 13.2 16.3 20.2 24.1 6.9 7.9 14.2 15.4 21.5 22.9 7.5 7.3 15 14.6 22.9 21.5 7.8 7 15.9 13.6 24.1 20.2 8.3 6.4 16.7 12.7 25.3 18.6 8.6 6 17.5 11.6 26.4 17.1l6.8 4 3.4 2 3.4 1.9 6.9 3.8c2.3 1.3 4.6 2.5 7 3.7 9.3 4.9 18.7 9.5 28.3 13.8 9.6 4.2 19.2 8.4 29.1 12 9.8 3.8 19.7 7.1 29.7 10.3 10 3 20.1 5.9 30.3 8.4 20.4 5 41 8.8 61.9 11.3 20.8 2.5 41.8 3.7 62.7 3.8 21 0 41.9-1.3 62.7-3.8 20.8-2.4 41.5-6.3 61.9-11.3 10.2-2.5 20.3-5.4 30.3-8.4 10-3.2 20-6.5 29.7-10.3 9.8-3.7 19.5-7.8 29.1-12 9.5-4.4 19-8.9 28.3-13.8 2.3-1.2 4.7-2.4 7-3.7l6.9-3.8 3.4-1.9 3.4-2 6.8-4c8.9-5.5 17.8-11.1 26.4-17.1 8.7-5.9 17-12.2 25.3-18.6 8.2-6.5 16.3-13.2 24.1-20.2 7.9-6.9 15.4-14.2 22.9-21.5 7.3-7.5 14.6-15 21.5-22.9 7-7.8 13.6-15.9 20.2-24.1 6.4-8.3 12.7-16.7 18.6-25.3 6-8.6 11.6-17.5 17.1-26.4l4-6.8 2-3.4 1.9-3.4 3.8-6.9c1.3-2.3 2.5-4.6 3.7-7 4.9-9.3 9.5-18.7 13.8-28.3 4.2-9.6 8.4-19.2 12-29.1 3.8-9.8 7.1-19.7 10.3-29.7 3-10 5.9-20.1 8.4-30.3 10.1-40.7 15-82.7 15.1-124.6-.2-41.9-5.1-83.9-15.2-124.6ZM1118.3 789c-3.1 9.6-6.3 19.2-9.9 28.6-3.5 9.5-7.5 18.7-11.6 27.9-4.2 9.2-8.5 18.3-13.3 27.2-1.2 2.2-2.3 4.5-3.5 6.7l-3.7 6.6-1.8 3.3-1.9 3.2-3.8 6.5c-5.3 8.6-10.7 17.1-16.5 25.3-5.7 8.3-11.8 16.4-17.9 24.3-6.3 7.9-12.7 15.7-19.4 23.2-6.6 7.6-13.6 14.8-20.7 22-7.2 7.1-14.4 14.1-22 20.7-7.5 6.7-15.3 13.1-23.2 19.4-8 6.2-16 12.2-24.3 17.9-8.3 5.8-16.8 11.2-25.3 16.5l-6.5 3.8-3.2 1.9-3.3 1.9-6.6 3.7c-2.2 1.2-4.5 2.4-6.7 3.5-8.9 4.7-18 9.1-27.2 13.3-9.2 4.1-18.5 8-27.9 11.5-9.4 3.6-19 6.8-28.6 9.9-9.7 2.9-19.3 5.7-29.1 8.1-19.6 4.8-39.4 8.5-59.4 10.8a506.905 506.905 0 0 1-120.6 0c-20-2.3-39.9-6-59.4-10.8-9.8-2.4-19.5-5.2-29.1-8.1-9.6-3.1-19.2-6.3-28.6-9.9-9.5-3.5-18.7-7.5-27.9-11.5-9.2-4.2-18.3-8.5-27.1-13.3-2.2-1.2-4.5-2.3-6.7-3.5l-6.6-3.7-3.3-1.9-3.2-1.9-6.5-3.8c-8.6-5.3-17.1-10.7-25.4-16.5-8.3-5.7-16.4-11.8-24.4-17.9-7.9-6.3-15.7-12.7-23.2-19.4-7.6-6.6-14.8-13.6-22-20.7-7.1-7.2-14.1-14.4-20.7-22-6.7-7.5-13.1-15.3-19.4-23.2-6.2-8-12.2-16-17.9-24.3-5.8-8.3-11.2-16.8-16.5-25.3l-3.9-6.5-1.9-3.2-1.8-3.3-3.7-6.6c-1.2-2.2-2.4-4.5-3.5-6.7-4.7-8.9-9.1-18-13.3-27.2-4.1-9.2-8-18.5-11.6-27.9s-6.8-19-9.9-28.6c-2.9-9.7-5.7-19.3-8.1-29.1-9.7-39.1-14.4-79.5-14.5-119.7.1-40.3 4.8-80.6 14.5-119.7 2.3-9.8 5.1-19.5 8.1-29.1 3.1-9.6 6.3-19.2 9.9-28.6 3.5-9.5 7.5-18.7 11.6-27.9 4.2-9.2 8.5-18.3 13.3-27.1 1.2-2.2 2.3-4.5 3.5-6.7l3.7-6.6 1.8-3.3 1.9-3.2 3.9-6.5c5.3-8.6 10.7-17.1 16.5-25.4 5.7-8.3 11.8-16.4 17.9-24.4 6.3-7.9 12.7-15.7 19.4-23.2 6.6-7.6 13.6-14.8 20.7-22 7.2-7.1 14.4-14.1 22-20.7 7.5-6.7 15.3-13.1 23.2-19.4 8-6.2 16-12.2 24.3-17.9 8.3-5.8 16.8-11.2 25.4-16.5l6.5-3.9 3.2-1.9 3.3-1.8 6.6-3.7c2.2-1.2 4.5-2.4 6.7-3.5 8.9-4.7 18-9.1 27.1-13.3 9.2-4.1 18.5-8 27.9-11.6s19-6.8 28.6-9.9c9.6-2.9 19.3-5.7 29.1-8.1 19.6-4.8 39.4-8.5 59.4-10.8a506.905 506.905 0 0 1 120.6 0c20 2.4 39.9 6 59.4 10.8 9.8 2.3 19.5 5.2 29.1 8.1 9.6 3.1 19.2 6.3 28.6 9.9 9.5 3.5 18.7 7.5 27.9 11.5 9.2 4.2 18.3 8.5 27.2 13.3 2.2 1.2 4.5 2.3 6.7 3.5l6.6 3.7 3.3 1.9 3.2 1.9 6.5 3.9c8.6 5.3 17.1 10.7 25.3 16.5 8.3 5.7 16.4 11.8 24.3 17.9 7.9 6.3 15.7 12.7 23.2 19.4 7.6 6.6 14.8 13.6 22 20.7 7.1 7.2 14.1 14.4 20.7 22 6.7 7.5 13.1 15.3 19.4 23.2 6.2 8 12.2 16 17.9 24.3 5.8 8.3 11.2 16.8 16.5 25.4l3.8 6.5 1.9 3.2 1.8 3.3 3.7 6.6c1.2 2.2 2.4 4.5 3.5 6.7 4.7 8.9 9.1 18 13.3 27.1 4.1 9.2 8 18.5 11.6 27.9s6.8 19 9.9 28.6c2.9 9.6 5.7 19.3 8.1 29.1 9.7 39.1 14.4 79.5 14.5 119.7-.1 40.3-4.8 80.6-14.5 119.7-2.3 9.8-5.1 19.5-8 29.2Z"/>
  </g>
</svg>