<svg xmlns="http://www.w3.org/2000/svg" xml:space="preserve" viewBox="0 0 1280 1280">
  <g id="Layer_1" fill="#e71324">
    <path d="M885.9 275.1c0-1.8-.1-3.6-.2-5.5-.1-.9-.1-1.8-.2-2.7l-.3-2.7c-1-7.3-2.8-14.4-5.5-21.2-1.3-3.4-2.9-6.7-4.6-10-1.8-3.2-3.7-6.3-5.8-9.3-2.1-3-4.4-5.8-6.9-8.6-2.5-2.7-5.1-5.3-7.8-7.6-2.7-2.4-5.7-4.6-8.7-6.7-3.1-2-6.2-3.9-9.5-5.6-6.5-3.3-13.5-5.9-20.6-7.6l-2.7-.6-2.7-.5c-1.8-.3-3.6-.5-5.4-.8-1.8-.2-3.6-.3-5.5-.4l-2.7-.1H485.3c-7.3 0-14.6.9-21.7 2.6-7.1 1.7-14 4.4-20.5 7.8-13 6.8-24.2 16.7-32.6 28.7-8.4 12-13.8 26.1-15.6 40.7-.5 3.6-.7 7.3-.7 10.9V1070.5c0 1.8.1 3.6.2 5.5.1.9.1 1.8.2 2.7l.3 2.7c.9 7.3 2.8 14.4 5.5 21.2 1.3 3.4 2.9 6.7 4.6 10 1.8 3.2 3.7 6.3 5.8 9.3 2.1 3 4.4 5.8 6.9 8.5s5.1 5.3 7.8 7.6c2.7 2.4 5.7 4.6 8.7 6.7 3.1 2 6.2 3.9 9.5 5.6 6.5 3.3 13.5 5.9 20.6 7.6l2.7.6 2.7.5c1.8.3 3.6.5 5.4.8 1.8.2 3.6.3 5.5.4l2.7.1H794.6c7.3 0 14.6-.9 21.7-2.6 7.1-1.7 14-4.4 20.5-7.8 13-6.8 24.2-16.7 32.6-28.7 8.4-12 13.8-26.1 15.6-40.7.5-3.6.7-7.3.7-10.9V275.1h.2zm-20.3 184.3v610.3c0 2.8-.2 5.7-.6 8.5-1.4 11.3-5.6 22.2-12.1 31.6-6.5 9.3-15.3 17.1-25.3 22.4-10.1 5.3-21.5 8-32.8 8.1H483.9l-2.1-.1c-1.4-.1-2.8-.2-4.2-.4-1.4-.2-2.8-.3-4.2-.6l-2.1-.4-2.1-.5c-5.5-1.3-10.9-3.3-16-5.9-2.5-1.3-5-2.8-7.3-4.3-2.3-1.6-4.6-3.3-6.8-5.2-2.2-1.8-4.2-3.9-6.1-5.9-1.9-2.1-3.7-4.3-5.3-6.7-1.7-2.3-3.1-4.8-4.5-7.2-1.3-2.5-2.6-5.1-3.6-7.7-2.1-5.3-3.6-10.8-4.3-16.5l-.3-2.1c-.1-.7-.1-1.4-.2-2.1-.1-1.4-.2-2.8-.2-4.2V276c0-2.8.2-5.7.6-8.5 1.4-11.3 5.6-22.3 12.1-31.6s15.3-17.1 25.3-22.4c10.1-5.3 21.5-8.1 32.8-8.1h310.8l2.1.1c1.4.1 2.8.2 4.2.4 1.4.2 2.8.3 4.2.6l2.1.4 2.1.5c5.5 1.3 10.9 3.3 16 5.9 2.5 1.3 5 2.8 7.4 4.3 2.3 1.6 4.6 3.3 6.8 5.2 2.2 1.8 4.2 3.9 6.1 5.9 1.9 2.1 3.7 4.3 5.3 6.7 1.7 2.3 3.1 4.8 4.5 7.2 1.3 2.5 2.6 5.1 3.6 7.7 2.1 5.3 3.6 10.9 4.3 16.5l.3 2.1c.1.7.1 1.4.2 2.1.1 1.4.2 2.8.2 4.2v184.2z" class="st4"/>
    <path d="m845.7 272.6-.1-1.5-.2-1.5c-.5-4.1-1.6-8.1-3.1-11.9-.7-1.9-1.6-3.8-2.6-5.6-1-1.8-2.1-3.6-3.3-5.2-1.2-1.7-2.5-3.3-3.9-4.8s-2.8-3-4.4-4.3c-1.5-1.4-3.2-2.6-4.9-3.8-1.7-1.1-3.5-2.2-5.3-3.1-3.6-1.9-7.5-3.3-11.5-4.2l-1.5-.4-1.5-.3c-1-.2-2-.3-3.1-.4-1-.1-2-.2-3.1-.3H485.3c-8.2 0-16.4 2-23.7 5.8-7.3 3.8-13.6 9.4-18.3 16.2-4.7 6.8-7.8 14.6-8.8 22.8-.3 2-.4 4.1-.4 6.2V1070c0 1 0 2.1.1 3.1l.1 1.5.2 1.5c.5 4.1 1.6 8.1 3.1 11.9.7 1.9 1.7 3.8 2.6 5.6 1 1.8 2.1 3.6 3.3 5.2 1.2 1.7 2.5 3.3 3.8 4.8 1.4 1.5 2.9 3 4.4 4.3 1.5 1.4 3.2 2.6 4.9 3.8 1.7 1.1 3.5 2.2 5.3 3.1 3.6 1.9 7.5 3.3 11.5 4.2l1.5.3 1.5.3c1 .2 2 .3 3.1.4 1 .1 2 .2 3.1.3h312c8.2 0 16.4-2 23.7-5.8 7.3-3.8 13.6-9.4 18.3-16.2 4.7-6.8 7.8-14.6 8.8-22.8.3-2 .4-4.1.4-6.2V275.7c0-1 0-2.1-.1-3.1zm-20.1 186.8v610c0 1.3-.1 2.5-.3 3.7-.6 4.9-2.4 9.6-5.3 13.7-2.8 4.1-6.7 7.5-11.1 9.8-4.4 2.3-9.2 3.5-14.3 3.5H483.7c-.6-.1-1.2-.1-1.9-.2-.6-.1-1.2-.1-1.8-.3l-.9-.2-.9-.2c-2.4-.5-4.7-1.4-6.9-2.5-1.1-.5-2.2-1.2-3.2-1.9s-2-1.4-3-2.3c-1-.8-1.8-1.7-2.7-2.6-.8-.9-1.6-1.9-2.3-2.9-.8-1-1.4-2.1-2-3.2-.6-1.1-1.1-2.2-1.6-3.4-.9-2.3-1.5-4.7-1.9-7.1l-.1-.9-.1-.9c-.1-.6-.1-1.2-.1-1.9V276.3c0-1.3.1-2.5.3-3.7.6-4.9 2.4-9.6 5.3-13.7 2.8-4.1 6.7-7.5 11.1-9.8 4.4-2.3 9.2-3.5 14.3-3.5h311c.6.1 1.2.1 1.9.2.6.1 1.2.1 1.8.3l.9.1.9.2c2.4.5 4.7 1.4 6.9 2.5 1.1.5 2.2 1.2 3.2 1.9s2 1.4 3 2.3c1 .8 1.8 1.7 2.7 2.6.8.9 1.6 1.9 2.3 2.9.8 1 1.4 2.1 2 3.1.5 1.1 1.1 2.2 1.5 3.4.9 2.3 1.5 4.7 1.9 7.1l.1.9.1.9c.1.6.1 1.2.1 1.9v183.5z" class="st4"/>
    <path d="m717.3 603.7-46.6-4.4c-4.9-.5-8.3-7-7.6-14.7l9.7-102.1c.5-4.9-.7-9.7-3.2-12.4-3.9-4.3-9.5-2.6-12.6 3.7l-102.2 205c-1.1 2.1-1.8 4.6-2 7.2-.7 7.6 2.7 14.2 7.6 14.6L607 705c4.9.5 8.3 7 7.6 14.7l-9.7 102.1c-.5 4.9.7 9.7 3.2 12.4 3.8 4.3 9.5 2.7 12.6-3.7l102.2-205c1.1-2.1 1.8-4.6 2-7.1.7-7.8-2.7-14.3-7.6-14.7zM771.6 147.2c0-15.3-12.4-27.7-27.7-27.7H537.5c-15.9 0-28.8 12.9-28.8 28.8v15h262.8v-16.1z" class="st4"/>
  </g>
</svg>