<svg xmlns="http://www.w3.org/2000/svg" xml:space="preserve" viewBox="0 0 1280 1280">
  <g id="Layer_1" fill="#e71324">
    <path d="M786.1 692V473.7c0-20.4-16.6-37-37-37H650v-58.1c13.5-4 23.4-16.4 23.4-31.2 0-17.9-14.6-32.5-32.5-32.5s-32.5 14.6-32.5 32.5c0 14.1 9.1 26.2 21.7 30.7v58.6H531c-20.4 0-37 16.6-37 37V692c0 20.4 16.6 37 37 37h99v113.9c-13 4.2-22.5 16.5-22.5 30.9 0 17.9 14.6 32.5 32.5 32.5s32.5-14.6 32.5-32.5c0-14.5-9.5-26.8-22.6-31V729H749c20.5 0 37.1-16.6 37.1-37zm-20 0c0 9.3-7.6 17-17 17H530.8c-9.3 0-17-7.6-17-17V473.7c0-9.4 7.6-17 17-17h218.3c9.3 0 17 7.6 17 17V692z" class="st4"/>
    <path d="M645.3 646.6c-10.5 0-19.1 8.6-19.1 19.1s8.6 19.1 19.1 19.1 19.1-8.6 19.1-19.1-8.6-19.1-19.1-19.1zM737.5 649.4V531.7c0-22.1-18-40.1-40.1-40.1h-8.1c-3.4-5.5-9.4-9.1-16.3-9.1-10.5 0-19.1 8.6-19.1 19.1 0 10.5 8.6 19.1 19.1 19.1 6.9 0 12.9-3.7 16.3-9.1h8.1c11.1 0 20.1 9 20.1 20.1v117.7c-5.5 3.4-9.1 9.4-9.1 16.3 0 10.5 8.6 19.1 19.1 19.1s19.1-8.6 19.1-19.1c.1-6.9-3.6-12.9-9.1-16.3zM562.8 646.6c-10.5 0-19.1 8.6-19.1 19.1s8.6 19.1 19.1 19.1c10.6 0 19.1-8.6 19.1-19.1s-8.5-19.1-19.1-19.1zM374.5 419.8c10.7 0 20.1-5.2 26.1-13.1h62c16.3 0 29.5-13.2 29.5-29.5V312c12.7-4.4 21.9-16.5 21.9-30.7 0-17.9-14.6-32.5-32.5-32.5S449 263.4 449 281.3c0 14.7 9.8 27.1 23.2 31.2v64.8c0 5.2-4.3 9.5-9.5 9.5H407c-.3-17.7-14.8-32-32.5-32S342 369.4 342 387.3s14.5 32.5 32.5 32.5z" class="st4"/>
    <path d="M672.4 540.3h-55c-11.7 0-21.3 9.5-21.3 21.3v20.3h-7.4c-8.8 0-15.9-7.1-15.9-15.9v-48c5.5-3.4 9.1-9.4 9.1-16.3 0-10.5-8.6-19.1-19.1-19.1s-19.1 8.6-19.1 19.1c0 6.9 3.7 12.9 9.1 16.3v48c0 19.8 16.1 35.9 35.9 35.9h7.4v12.6c0 11.7 9.5 21.3 21.3 21.3h55c11.7 0 21.3-9.5 21.3-21.3v-52.9c0-11.8-9.6-21.3-21.3-21.3zm1.3 74.2c0 .7-.6 1.3-1.3 1.3h-55c-.7 0-1.3-.6-1.3-1.3v-52.9c0-.7.6-1.3 1.3-1.3h55c.7 0 1.3.6 1.3 1.3v52.9z" class="st4"/>
    <path d="M1162.4 765.8c-.2-11.7-1.4-23.3-3.7-34.8-4.1-20.2-11-39.8-20.9-57.8-4.9-9-10.4-17.7-16.6-25.8-1.1-1.5-.7-1-.9-1.2l-.2-.2-.2-.2v-.1l.3-1c.4-1.4.7-2.7 1-4.1.3-1.4.7-2.7.9-4.1 2.5-11.5 4-23.3 4.3-35.1.2-5.9-.1-11.8-.3-17.7 0-1.5-.2-2.9-.3-4.4l-.4-4.4c-.3-2.9-.5-5.9-1.1-8.8l-1.5-8.7c-.2-1.5-.6-2.9-1-4.3l-1-4.3-1.1-4.3c-.3-1.4-.9-2.8-1.3-4.2l-2.7-8.4c-1-2.8-2.1-5.5-3.2-8.2l-1.6-4.1-1.9-4c-1.3-2.7-2.5-5.4-3.8-8l-4.3-7.7c-.6-1.1-1.2-2.1-1.8-3.2l-2-3.1-3.9-6.1c-.6-1-1.4-2-2.1-3l-2.2-2.9c-1.4-1.9-2.8-3.9-4.4-5.8l-4.7-5.6c-1.6-1.9-3.1-3.7-4.8-5.5-3.3-3.5-6.6-7.1-10.2-10.3l-5.3-4.9c-1.8-1.6-3.7-3.1-5.6-4.6l-2.8-2.3c-.9-.8-1.9-1.5-2.9-2.2l-2.7-1.9-.2-.1v-.4l.1-.8.2-3.1c.2-4.1.3-8.3.1-12.4-.3-11.9-1.7-23.9-4.3-35.5-2.7-11.7-6.5-23.1-11.3-33.9-4.8-10.9-10.8-21.3-17.7-30.9-6.9-9.7-14.6-18.7-23.1-26.9-13.1-12.7-27.9-23.3-43.8-31.9-2-1-4-2.1-6-3.1l-6.1-2.9-6.2-2.7c-2-.9-4-1.6-6-2.3l-1.6-.6-.3-.8c-1-2.4-1.9-4.8-2.9-7.2-1-2.4-2.1-4.7-3.2-7.1-1.1-2.3-2.2-4.7-3.4-7-5.1-10.1-11-19.9-17.6-29.4-6.6-9.4-14-18.4-22.3-26.8l-3.1-3.1c-1-1-2.2-2-3.2-3-2.1-2-4.4-3.9-6.7-5.9-2.2-1.9-4.7-3.7-7-5.6l-3.6-2.6c-1.2-.9-2.4-1.8-3.7-2.6-10-6.7-20.7-12.7-32.3-17.1l-4.3-1.6-4.4-1.5-2.2-.7-2.2-.6-4.5-1.2c-6.1-1.5-12.2-2.8-18.4-3.4-3.1-.4-6.2-.6-9.3-.9-1.6-.1-3.1-.1-4.7-.2-1.5 0-3.2-.1-4.6-.1l-8.7.2c-2.9.1-5.9.4-8.8.6-11.8 1.1-23.6 3.3-35.3 6.8-11.7 3.5-23.1 8.4-33.8 14.7-1.9 1.1-3.7 2.3-5.5 3.4-1.8 1.2-3.7 2.3-5.4 3.6-3.5 2.6-7 5.1-10.2 7.9l-4.9 4.2-2.3 2.2-.6.6-.1.1-.1.1v-.1s0-.1-.1-.1l-.2-.2-.5-.5-2-1.9-2.1-1.8c-5.5-4.9-11.4-9.5-17.7-13.5-10.4-6.8-21.5-12.4-33.1-16.4-11.5-4.1-23.4-6.8-35.2-8.3l-4.4-.6c-1.5-.2-2.9-.2-4.4-.4l-4.4-.3-2.2-.2-2.2-.1-4.4-.1-2.2-.1h-2.2c-3.1.1-6.2.1-9.4.4-1.6.1-3.1.2-4.7.4l-4.7.6-2.3.3-2.3.4-4.6.8c-6.1 1.3-12.2 2.8-18 4.8-11.8 3.9-22.9 9.3-33.2 15.6-10.4 6.3-19.8 13.8-28.4 21.8-8.6 8.1-16.4 16.8-23.3 26.1-7 9.2-13.1 18.9-18.5 28.9-4.5 8.3-8.5 16.9-12 25.6l-1.1 2.8-3.6 1.4-2.3.9-1.1.4-1.2.5-4.7 2c-6.2 2.8-12.4 5.8-18.3 9.3-11.9 6.8-23 14.9-33.3 24-8.8 7.9-16.8 16.6-24.1 25.9-7.2 9.4-13.6 19.5-18.9 30.2-5.3 10.7-9.6 21.9-12.7 33.4-3.1 11.5-5 23.4-5.8 35.4l-.2 3.6-.1 3.6c-.1 2.4-.1 4.8-.1 7.2 0 2.4.1 4.8.3 7.2l.1 1.8.1.8v.2l-.2.1-.5.4-1.1.8-2.1 1.5-2.1 1.6-4.1 3.3c-1.4 1.1-2.7 2.2-4.1 3.4l-3.9 3.6c-2.6 2.4-5.2 4.7-7.6 7.3l-3.6 3.8c-1.2 1.3-2.4 2.5-3.6 3.9l-6.8 8.1c-2.1 2.8-4.2 5.7-6.3 8.5-.5.7-1.1 1.4-1.5 2.1l-1.4 2.2-2.9 4.5c-.8 1.2-1.6 2.5-2.3 3.7l-2.2 3.9c-1.4 2.6-2.9 5.1-4.2 7.8-2.5 5.3-5.2 10.6-7.2 16.2l-1.6 4.1-.8 2.1c-.2.7-.5 1.4-.7 2.1l-2.7 8.4c-.2.7-.5 1.4-.7 2.1l-.5 2.2-1.1 4.3c-.7 2.9-1.5 5.7-1.9 8.6l-1.5 8.7c-.3 1.5-.4 2.9-.6 4.4l-.5 4.4c-.8 5.9-.8 11.8-1 17.6-.1 11.8.9 23.6 2.9 35.2.7 3.8 1.4 7.5 2.4 11.2.4 1.8.9 3.6 1.4 5.4l-.3.4-.1.1-.4.5-1.7 2.4-3.5 4.8-3.3 4.9-1.6 2.5c-.5.8-1 1.7-1.5 2.5l-3 5.1c-1 1.7-1.9 3.5-2.8 5.2-.9 1.7-1.9 3.5-2.7 5.2-1.7 3.5-3.5 7.1-5 10.7-.8 1.8-1.6 3.6-2.3 5.5l-2.1 5.5c-.3.9-.7 1.8-1 2.8l-.9 2.8-1.8 5.7c-.6 1.9-1.1 3.8-1.6 5.7-.5 1.9-1.1 3.8-1.4 5.8-2.7 11.4-4.4 23-5 34.7-.6 11.7-.3 23.4 1.1 35 2.8 23.2 9.5 46 20.1 66.8 5.2 10.4 11.3 20.4 18.2 29.8 6.9 9.3 14.5 18.1 22.8 26.2 8.2 8.1 17.2 15.5 26.6 22.1l3.5 2.5 3.6 2.4c2.4 1.6 4.9 3.1 7.3 4.6 1.2.8 2.5 1.5 3.7 2.2.5.2.3.2.3.2h.1v1.3l.1 1.9.3 3.8c.3 5 1.1 10 1.8 15 1.7 9.9 3.8 19.8 6.9 29.3l1.1 3.6c.4 1.2.8 2.4 1.3 3.5l2.6 7.1 2.9 6.9c.5 1.2 1 2.3 1.5 3.4l1.6 3.4c4.2 9.1 9.3 17.7 14.8 26l4.9 7.1 5.2 6.9 1.3 1.7 1.4 1.7 2.8 3.3 2.8 3.3 2.9 3.2 2.9 3.2 1.5 1.6 1.5 1.5 6.1 6 6.4 5.7 1.6 1.4 1.7 1.4 3.3 2.7c17.8 14.4 37.8 25.9 58.9 34.4 10.6 4.2 21.4 7.8 32.4 10.5 2.8.7 5.5 1.2 8.3 1.9l4.2.9 4.2.7c2.8.4 5.6 1 8.4 1.3l8.4 1c1.4.2 2.8.3 4.2.4l4.2.3 4.2.3c1.4.1 2.8.1 4.2.1l8.5.2 8.2-.1c11-.3 22-1.1 33-2.6 22-2.9 43.9-8.4 65-17.1 10.5-4.3 20.9-9.5 30.8-15.5 9.9-6 19.4-13 28.2-20.8 1.6-1.4 3.3-2.9 4.8-4.4 1.6-1.5 3.2-3 4.7-4.6l4.5-4.7 3.9-4.4c2 2.2 3.9 4.5 6 6.6l3.2 3.3c1.1 1.1 2.2 2.1 3.3 3.2 8.6 8.1 17.8 15.5 27.5 21.8 9.7 6.4 19.9 11.9 30.4 16.6 20.9 9.4 42.8 15.5 64.7 19 11 1.7 22 2.8 33 3.3 2.7.1 5.5.2 8.2.3 2.8 0 5.4.1 8.2.1l8.5-.2 2.1-.1 2.1-.1 4.2-.3c5.7-.3 11.3-1.1 16.9-1.8 5.6-.9 11.2-1.8 16.8-3.1 5.6-1.1 11-2.7 16.5-4.1 5.4-1.7 10.9-3.3 16.2-5.4 2.7-1 5.3-1.9 8-3.1 2.6-1.1 5.3-2.2 7.8-3.4l7.7-3.7c1.3-.6 2.5-1.3 3.8-1.9l3.8-2c10-5.5 19.7-11.5 28.8-18.5 9.1-6.9 17.8-14.4 25.8-22.6 8-8.2 15.4-17.1 22.2-26.4l4.5-6.5c1.5-2.2 2.8-4.5 4.2-6.7l2.1-3.4 1.9-3.5c1.3-2.3 2.6-4.6 3.8-7 4.8-9.5 8.8-19.3 12.3-29.4 3.3-10.1 5.8-20.5 7.7-31 .4-2.6.8-5.3 1.1-7.9.2-1.3.4-2.6.5-4l.3-4 .6-6.9v-.9h.1l.1-.1.5-.3.9-.5c1.3-.7 2.5-1.5 3.7-2.2l3.7-2.2 3.6-2.4c9.6-6.3 18.8-13.4 27.3-21.2 8.5-7.8 16.4-16.3 23.6-25.4 7.2-9.1 13.6-18.9 19.2-29.1 11.2-20.4 18.8-42.9 22.5-66 2.5-12.2 3.3-23.9 3.1-35.6zm-42.5-120.1zm20.1 151.9c-3.3 20.8-10.1 41-20.2 59.4-5 9.2-10.8 18-17.3 26.2s-13.7 15.9-21.4 23c-7.7 7.1-16 13.5-24.8 19.2l-3.3 2.1-3.3 2c-1.1.7-2.2 1.4-3.4 2l-2.7 1.5c-1.4.8-3 1.6-4.4 2.3-1.5.8-3 1.4-4.5 2.2-.1 2.2.1 4.6 0 6.8l-.1 4.9v.6l-.1.9-.1 1.8-.3 3.6-.3 3.6c-.1 1.2-.3 2.4-.5 3.6-.3 2.4-.6 4.8-1 7.1-1.6 9.5-3.9 18.8-6.9 27.9-3.1 9.1-6.7 18-11.1 26.5-1.1 2.2-2.3 4.2-3.4 6.3l-1.7 3.2-1.9 3.1c-1.3 2-2.5 4.1-3.8 6.1l-4.1 5.9c-6.1 8.5-12.8 16.5-20.1 24-7.3 7.5-15.2 14.3-23.5 20.6-8.3 6.3-17.2 11.9-26.3 16.9l-3.4 1.8c-1.1.6-2.3 1.2-3.5 1.8l-7 3.4c-2.4 1.1-4.8 2-7.2 3.1-2.4 1.1-4.8 1.9-7.3 2.8-4.8 1.9-9.8 3.3-14.8 4.9-5 1.3-10 2.8-15.1 3.8-5.1 1.2-10.2 1.9-15.3 2.8-5.2.6-10.3 1.3-15.5 1.6l-3.9.3-1.9.1-2 .1-7.8.2c-2.6 0-5.1 0-7.7-.1-2.6 0-5.1-.2-7.7-.3-10.3-.5-20.5-1.5-30.7-3.1-20.4-3.2-40.5-8.9-59.6-17.4-9.5-4.3-18.8-9.3-27.5-15-8.8-5.7-17.1-12.3-24.7-19.6-1-.9-2-1.9-3-2.8l-2.9-3c-1.9-1.9-3.7-4-5.5-6.1l-.4-.4-.4-.5-.8-1-1.7-2c-1-1.4-2.1-2.8-3.1-4.2-2.9-4-5.4-8.3-7.7-12.7l-.8-1.7-.1-.2c0-.1-.1-.2-.2-.1-.1 0-.1.1-.2.1l-.1.2-.4.8c-.6 1.1-1.1 2.2-1.7 3.3l-1.8 3.2c-.6 1.1-1.3 2.1-2 3.2-2.7 4.2-5.7 8.2-8.9 11.9l-3.8 4.2-4.1 4.2c-1.3 1.4-2.8 2.7-4.2 4.1-1.4 1.4-2.9 2.7-4.3 3.9-7.9 7-16.4 13.2-25.4 18.6-9 5.4-18.3 10.1-28 14.1-19.3 7.9-39.5 13-60 15.8-10.2 1.4-20.5 2.2-30.8 2.4l-7.7.1-7.8-.2c-1.3 0-2.6 0-3.9-.1l-3.9-.3-3.9-.3-3.9-.3-7.7-.9c-2.6-.3-5.1-.8-7.7-1.2l-3.9-.6-3.8-.8c-2.5-.6-5.1-1-7.6-1.7-10.1-2.5-20-5.8-29.7-9.6-19.3-7.8-37.5-18.3-53.8-31.5l-3-2.5-1.5-1.2-1.5-1.3-5.8-5.2-5.6-5.5-1.4-1.4-1.3-1.4-2.7-2.9-2.7-2.9-2.5-3-2.5-3-1.3-1.5-1.2-1.6-4.8-6.2-4.4-6.5c-4.9-7.6-9.5-15.4-13.4-23.6l-1.5-3c-.5-1-.9-2.1-1.3-3.1l-2.6-6.2-2.3-6.4c-.4-1.1-.8-2.1-1.1-3.2l-1-3.2c-2.8-8.6-4.7-17.5-6.2-26.4-.6-4.5-1.3-9-1.6-13.5l-.3-3.4-.1-1.7V948.9l-.1-4.6v-2.8l.1-2.8v-.7c0-.1 0-.3-.1-.3l-1.2-.6-2.5-1.2c-1.5-.8-3-1.5-4.5-2.3l-2.3-1.3c-1.1-.6-2.3-1.3-3.4-2-2.2-1.4-4.5-2.7-6.7-4.1l-3.3-2.1-3.2-2.2c-8.6-6-16.7-12.7-24.1-20-7.5-7.3-14.4-15.3-20.6-23.7-6.2-8.5-11.7-17.5-16.4-26.8-1.2-2.3-2.3-4.7-3.4-7.1-1.1-2.4-2.1-4.8-3.1-7.2-.9-2.5-1.9-4.9-2.7-7.4-.8-2.5-1.7-5-2.4-7.5-3-10.1-5.2-20.4-6.4-30.8-1.2-10.4-1.5-21-.9-31.5.5-10.5 2.1-21 4.5-31.2.4-1.7.9-3.5 1.3-5.2.5-1.7.9-3.4 1.4-5.1l1.6-5.1.8-2.5c.3-.8.6-1.7.9-2.5l1.9-5c.6-1.7 1.4-3.3 2.1-4.9 1.3-3.3 2.9-6.5 4.5-9.7.7-1.6 1.6-3.2 2.5-4.7.9-1.5 1.7-3.1 2.6-4.7l2.7-4.6c.5-.8.9-1.5 1.4-2.3l1.5-2.2 2.9-4.4 3.1-4.3 1.6-2.2.4-.5.3-.3.6-.7 2.2-2.8c.7-.8 1.4-1.7 2.1-2.5l1.1-1.2.5-.6c.1-.1.2-.2.2-.3 0-.1-.1-.3-.1-.4-.8-2-1.4-4.1-2.1-6.2-.3-1-.6-2.1-.9-3.1-.4-1.7-.9-3.3-1.3-5-.8-3.3-1.5-6.7-2.1-10-1.8-10.4-2.8-20.9-2.6-31.5.2-5.3.2-10.5.9-15.8l.4-3.9c.2-1.3.2-2.6.5-3.9l1.4-7.8c.4-2.6 1.1-5.2 1.7-7.7l.9-3.8.5-1.9c.2-.6.4-1.3.6-1.9l2.4-7.5c.2-.6.4-1.3.6-1.9l.7-1.8 1.4-3.7c1.8-5 4.2-9.7 6.4-14.4 1.2-2.4 2.5-4.6 3.8-6.9l1.9-3.5 2.1-3.3 2.6-4 1.3-2c.4-.7.9-1.3 1.4-1.9l5.6-7.6 6.1-7.3c1-1.2 2.1-2.4 3.2-3.5l3.3-3.4c2.1-2.3 4.5-4.4 6.8-6.6l3.5-3.2c1.2-1 2.4-2 3.7-3l3.7-3 1.8-1.5 1.9-1.4 3-2.2c.8-.6 1.6-1.2 2.5-1.7l3.4-2.1 1.7-1.1c.3-.2.6-.3.8-.6l-.2-1c-.5-2.6-.8-5.3-1.1-8l-.2-2-.2-2.9c-.1-2.1-.2-4.2-.2-6.4-.1-2.1 0-4.2.1-6.4l.1-3.2.2-3.2c.7-10.6 2.4-21.1 5.1-31.3 2.8-10.2 6.6-20.2 11.3-29.6 4.7-9.5 10.4-18.5 16.8-26.8 6.4-8.4 13.6-16.2 21.5-23.2 9.2-8.2 19.2-15.4 29.8-21.5 5.3-3.1 10.8-5.8 16.4-8.3 2.8-1.2 5.6-2.5 8.4-3.5l2.1-.8 1-.4c.2-.1.3-.1.4-.1l.4-.1 2.8-.9c1.3-.5 2.7-.8 4-1.2l1-.3c.1 0 .2 0 .2-.1.1-.1.1-.2.1-.2l.2-.5.7-2c.4-1.3.9-2.6 1.4-4l.7-2c.1-.3.3-.8.5-1.3l.6-1.5c3.2-8 6.9-15.9 11-23.5 5-9.1 10.6-18 16.9-26.3s13.3-16.3 21-23.5c7.7-7.2 16.1-13.8 25.2-19.4 9.1-5.6 18.8-10.3 29-13.6 5.1-1.8 10.3-3 15.6-4.2l4-.7 2-.3 2-.3 4-.5c1.3-.1 2.7-.2 4-.3 2.7-.3 5.4-.2 8.1-.3 2.7 0 5.3.1 7.9.1l2 .1 2 .1 3.9.3 3.9.3 3.9.5c10.5 1.4 20.9 3.8 31 7.3 10.1 3.5 19.8 8.4 28.7 14.3 5.4 3.5 10.5 7.5 15.3 11.7.6.5 1.2 1 1.8 1.6l1.7 1.7 2.4 2.4c.7.7 1.4 1.5 2.1 2.2l2 2.2c.8.8 1.5 1.8 2.2 2.7l2.2 2.8c.7.9 1.3 1.9 2 2.9l1 1.4.5.7.2.4.1.2c0 .1.2.1.2 0 1.3-1.9 2.6-3.9 4-5.8l2.2-2.8c.7-.9 1.4-1.9 2.2-2.7 1.6-1.7 3.1-3.5 4.8-5.1l3.5-3.4 4.3-3.7c2.8-2.5 5.9-4.6 8.9-6.9 1.5-1.2 3.1-2.1 4.7-3.1s3.2-2.1 4.8-3c9.3-5.5 19.2-9.7 29.4-12.8 10.2-3.1 20.7-5 31.2-6 2.6-.2 5.2-.4 7.9-.6l7.9-.2c5.4 0 10.8.3 16.1 1 5.4.6 10.6 1.7 15.9 3l3.9 1.1 1.9.6 1.9.6 3.8 1.3 3.8 1.4c20 7.8 37.8 20.3 52.5 35.3 7.4 7.5 14.1 15.6 20.1 24.1 6 8.6 11.3 17.5 16 26.8 1.1 2.1 2.1 4.3 3.1 6.4 1 2.2 1.9 4.4 2.9 6.5l2.7 6.6.3.8.2.6.4 1.1.8 2.2c.5 1.2.8 2.4 1.3 3.7l.3.9.2.5c.1.1.3.1.4.2l1.9.6c1.2.4 2.5.7 3.7 1.2l1.8.6 1 .3 1.4.5c1.9.7 3.7 1.4 5.6 2.2l5.6 2.4 5.5 2.6c1.8.9 3.6 1.9 5.4 2.8 14.3 7.7 27.6 17.2 39.3 28.5 7.6 7.3 14.5 15.4 20.6 24 6.1 8.6 11.4 17.8 15.7 27.5 4.3 9.7 7.7 19.8 10.1 30.1 2.3 10.3 3.6 20.9 3.8 31.5.1 3.7.1 7.4-.1 11-.1 1.8-.2 3.9-.3 4.9-.1 1.2-.2 2.3-.3 3.5-.2 1.4-.4 2.8-.6 4.1l-.3 2-.1.5v.3c0 .1.1.1.2.2l.9.5 3.5 2.2c.6.4 1.2.7 1.8 1.1l1.7 1.2 4.3 3.1c.9.6 1.7 1.3 2.6 2l2.5 2.1c1.7 1.4 3.4 2.7 5 4.1l4.8 4.4c3.3 2.9 6.2 6.1 9.2 9.2 1.5 1.5 2.9 3.2 4.3 4.9l4.2 5c1.4 1.7 2.6 3.5 3.9 5.2l1.9 2.6c.6.9 1.3 1.7 1.9 2.7l3.5 5.5 1.8 2.8c.6.9 1.1 1.9 1.6 2.8l3.8 6.9c1.2 2.4 2.3 4.8 3.4 7.1l1.7 3.6 1.5 3.7c.9 2.5 1.9 4.9 2.8 7.4l2.4 7.5c.4 1.3.8 2.5 1.1 3.8l.9 3.8.9 3.8c.3 1.3.7 2.5.9 3.9l1.4 7.8c.5 2.6.7 5.2 1 7.8l.4 3.9c.1 1.3.3 2.6.3 3.9.2 5.3.5 10.5.3 15.8-.3 10.5-1.6 21.1-3.9 31.4-.3 1.2-.5 2.5-.8 3.7-.3 1.2-.6 2.5-.9 3.7l-.4 1.5-.3 1.2c-.2.8-.5 1.5-.7 2.3-.4 1.4-.9 2.8-1.4 4.2l-.4 1-.2.5c0 .1.1.2.1.2l.2.2 1.5 1.7c1 1.1 1.9 2.2 2.9 3.4l1.4 1.8c.5.6.9 1.1 1.6 2.1 5.6 7.3 10.5 15.2 15 23.3 8.9 16.2 15.2 33.9 18.8 52 2 10.3 3.1 20.8 3.3 31.3-.1 10.5-.8 21-2.5 31.4z" class="st4"/>
    <path d="M1119.5 738.6c-3.3-16.2-8.8-31.9-16.8-46.4-4-7.2-8.4-14.3-13.4-20.8-.5-.7-1.5-2-2.4-3l-2.7-3.3-1.3-1.7-.7-.8-.6-.8-2.3-3.4-2.3-3.4-.3-.4c-.1-.1-.2-.3-.2-.5l.2-1 .3-1.9c.2-1.3.5-2.7.8-4 .2-.7.3-1.4.5-2l.7-2.1c.5-1.5 1-3 1.4-4.5l.7-2.3.5-1.9c.3-1.1.6-2.2.8-3.2.3-1.1.5-2.2.8-3.3 2-9.1 3.1-18.4 3.4-27.8.2-4.7-.1-9.3-.2-14 0-1.2-.1-2.3-.3-3.5l-.4-3.5c-.3-2.3-.4-4.7-.9-7l-1.2-6.9c-.2-1.2-.5-2.3-.8-3.4l-.8-3.4-.8-3.4c-.2-1.1-.7-2.2-1-3.4l-2.1-6.7c-.8-2.2-1.7-4.4-2.5-6.5l-1.3-3.3-1.5-3.2-3-6.3-3.4-6.1c-.5-.8-.9-1.7-1.4-2.5l-1.6-2.4-3.1-4.9c-.5-.8-1.1-1.6-1.7-2.4l-1.7-2.3c-1.2-1.5-2.2-3.1-3.5-4.6l-3.7-4.4c-1.2-1.5-2.5-3-3.8-4.4-2.7-2.8-5.2-5.7-8.2-8.2l-4.3-3.9c-1.5-1.3-3-2.5-4.5-3.7l-2.2-1.8c-.8-.6-1.5-1.2-2.3-1.8l-2.5-1.8c-1.1-.8-2.1-1.6-3.3-2.3l-3.4-2.3c-1.1-.8-2-1.6-3-2.4l-6-4.8-1.5-1.2c-.1-.1-.3-.2-.3-.3-.1-.1 0-.3 0-.4v-.9c0-.6-.1-1.2-.1-1.8v-1.9c0-2.5.1-5.2.5-7.9.3-2.3.6-4.6.8-6.9.2-2.5.3-3.8.4-5.4.2-3.2.2-6.5.1-9.7-.2-9.3-1.3-18.5-3.3-27.6-2.1-9-5-17.9-8.8-26.4-3.8-8.5-8.4-16.6-13.8-24.2s-11.5-14.7-18.2-21.2c-10.3-10-22.2-18.5-34.9-25.3-1.6-.8-3.2-1.7-4.8-2.5l-4.9-2.3-5-2.1c-1.7-.7-3.4-1.3-5.1-2l-1.3-.5-1.8-.6-3.6-1.2c-1.2-.4-2.5-.8-3.6-1.2l-3.3-1.5-3.3-1.5-.4-.2c-.1-.1-.3-.1-.4-.2l-.4-.8-.8-1.6-1.6-3.3c-.5-1.1-1.1-2.1-1.5-3.4l-1.5-4.2-.8-2.1-.4-1.1c-.1-.4-.2-.5-.3-.8-.8-2-1.6-4-2.5-6.1l-2.7-6c-1-2-1.9-3.9-2.8-5.9-4.3-8.5-9.1-16.6-14.6-24.3s-11.4-15-18-21.6c-13.1-13.3-28.6-24.2-45.7-30.8l-3.2-1.2-3.3-1.1-1.6-.5-1.7-.5-3.3-.9c-4.4-1-8.9-2-13.4-2.5-4.5-.6-9.1-.8-13.6-.8l-7 .2c-2.3.1-4.7.3-7 .5-18.6 1.7-36.7 6.9-52.5 16.1-1.4.8-2.7 1.7-4.1 2.6-1.3.9-2.7 1.7-4 2.7-2.5 1.9-5.2 3.7-7.6 5.9l-3.7 3.1-3.9 3.8c-3.3 3.2-6.2 7.1-9.2 10.7l-1.1 1.4-.6.7-.6.6-2.2 2.2c-1.5 1.5-3 3-4.5 4.4-.8.8-1.4 1.2-2 1.8l-1.9 1.6-3.8 3.2c-.1.1-.3.1-.3 0-.1-.1-.2-.1-.2-.2l-.5-.4-1-.8-1.9-1.6-1.9-1.6-1-.8-.5-.4c-.2-.1-.4-.3-.5-.5-1.5-1.4-3-2.9-4.5-4.4-1.5-1.5-3-2.8-4.5-4.9l-3.8-4.8c-1.3-1.6-2.5-3.2-4-4.6-.7-.7-1.4-1.5-2.1-2.1l-1.9-1.8-1.5-1.5c-.5-.5-1-.9-1.6-1.4-4.1-3.6-8.5-7-13.1-10-7.6-5-15.9-9.2-24.5-12.2-8.7-3.1-17.7-5.1-27-6.3l-3.5-.4c-1.2-.2-2.3-.2-3.5-.3l-3.5-.3-1.8-.1h-1.8c-2.3 0-4.7-.1-7-.1-2.3.1-4.6.1-6.8.3l-3.4.3-3.4.4-1.7.2-1.7.3-3.4.6c-4.5 1-8.9 2-13.2 3.6-8.7 2.8-17 6.9-24.9 11.7-7.9 4.8-15.2 10.6-22 17-6.8 6.4-13.1 13.4-18.7 20.9-5.7 7.5-10.8 15.5-15.3 23.9-3.8 7-7.1 14.1-10.1 21.5l-.6 1.4c-.2.5-.4.9-.6 1.6l-1.4 3.9-1.4 3.9c-.5 1.2-1.1 2.4-1.7 3.6l-1.7 3.5-.4.9c-.1.1-.1.3-.2.4-.1.1-.3.1-.4.2l-1.8.8-3.6 1.6-1.8.8c-.6.2-1.3.4-1.9.7l-5.5 1.8-.7.2c-.2.1-.5.2-.6.2l-1 .4-1.9.7c-2.6 1-5.1 2.1-7.6 3.1-5 2.2-9.9 4.6-14.6 7.4-9.5 5.4-18.3 11.9-26.5 19.1-7 6.2-13.3 13.1-19 20.5-5.7 7.4-10.7 15.3-14.8 23.6-4.1 8.3-7.5 17-9.9 26-2.4 9-3.9 18.2-4.5 27.4l-.2 2.8-.1 2.8c0 1.9-.1 3.7-.1 5.6 0 1.9.1 3.7.2 5.6l.1 1.4.1 1.7c.1 1.2.2 2.6.4 3.9.3 2.6.8 5.3.9 7.9.2 2.6.1 5 0 7.3l-.1 1.7c0 .2-.2.2-.3.3l-.4.3-.7.6-2.9 2.3-5.7 4.7c-1.7 1.1-3.3 2.2-5 3.3l-4.2 3-1.7 1.2-1.4 1-3.3 2.7c-1.1.9-2.2 1.8-3.2 2.7l-3.1 2.9c-2.1 1.9-4.2 3.8-6.1 5.9l-2.9 3c-1 1-2 2-2.8 3.1l-5.4 6.5-5 6.8c-.4.6-.9 1.1-1.2 1.7l-1.1 1.8-2.3 3.5c-.6 1-1.3 2-1.9 3l-1.7 3.1c-1.1 2.1-2.3 4.1-3.3 6.2-1.9 4.2-4.1 8.4-5.7 12.8l-1.3 3.3-.6 1.6c-.2.5-.4 1.1-.5 1.7l-2.1 6.7c-.2.6-.4 1.1-.5 1.7l-.4 1.7-.8 3.4c-.5 2.3-1.2 4.5-1.5 6.8l-1.2 6.9c-.2 1.1-.3 2.3-.4 3.5l-.4 3.5c-.6 4.6-.6 9.3-.8 14-.1 9.4.7 18.7 2.3 27.9.5 3 1.1 5.9 1.9 8.9.3 1.5.7 2.9 1.1 4.4.3 1.1.6 2.1.9 3.1.3 1 .6 2 .9 3.1l1 3.1.2.8.2.8.3 1.5.3 1.5.2.8.1.7.4 2.9c0 .2.1.5.1.7-.1.2-.3.4-.4.6l-.8 1.2-1.7 2.5-1.7 2.5-.8 1.2c-.3.4-.7.8-1 1.2l-4.1 5-1 1.3-.5.6-.4.5-1.4 1.9-2.8 3.8-2.6 4-1.3 2c-.4.7-.8 1.4-1.2 2l-2.4 4.1c-.8 1.4-1.5 2.8-2.3 4.2-.7 1.4-1.6 2.8-2.2 4.2-1.4 2.9-2.8 5.7-4 8.6-.6 1.5-1.3 2.9-1.8 4.4l-1.7 4.5c-.3.7-.6 1.5-.8 2.2l-.7 2.3-1.5 4.5-1.2 4.6c-.4 1.5-.9 3-1.2 4.6-2.2 9.1-3.5 18.4-4 27.8s-.3 18.8.8 28.1 3 18.5 5.7 27.5c.6 2.3 1.4 4.5 2.2 6.7l2.4 6.6c.9 2.2 1.8 4.3 2.8 6.5 1 2.1 1.9 4.3 3 6.3 4.2 8.4 9.1 16.4 14.7 24 5.6 7.6 11.8 14.7 18.5 21.3 6.7 6.6 14 12.6 21.7 18l2.9 2 3 1.9c1.9 1.3 4 2.5 6 3.7 1 .6 2 1.2 3.1 1.8l2 1.1 2.2 1.2c2.9 1.6 5.9 3 8.7 4.6l4 2.9 2 1.4c.1 0 .2.1.2.2v.3l.1.6.2 1.2.7 5 .3 2.5c.1.9.1 1.8.1 2.7l.1 8.3v2l.1 1.5.2 3c.2 4 .9 8 1.4 12.1 1.4 8 3 15.9 5.5 23.6l.9 2.9c.3 1 .7 1.9 1 2.9l2.1 5.7 2.4 5.6c.4.9.8 1.9 1.2 2.8l1.3 2.7c3.4 7.4 7.6 14.4 12 21.2l4 5.8 4.3 5.6 1.1 1.4 1.1 1.3 2.3 2.7 2.3 2.7 2.4 2.6 2.4 2.6 1.2 1.3 1.3 1.2 5.1 5 5.3 4.7 1.3 1.2 1.4 1.1 2.8 2.2c14.7 11.9 31.3 21.4 48.8 28.5 8.8 3.5 17.8 6.5 27 8.7 2.3.6 4.6 1 6.9 1.6l3.5.8 3.5.6c2.3.4 4.7.8 7 1.1l7.1.8c18.8 1.8 38.2 1.2 57.2-1.3 19-2.6 37.6-7.3 55.1-14.5 8.8-3.6 17.2-7.8 25.2-12.7 8-4.9 15.6-10.5 22.6-16.6 1.3-1.1 2.6-2.3 3.8-3.5 1.2-1.2 2.5-2.3 3.7-3.6l3.6-3.7 3.6-4c3.1-3.8 6.2-7.6 8.9-11.9l2.1-3.2 2.1-3.1 2.1-3.1.5-.8c.2-.2.4-.5.5-.7l1.1-1.2 2.1-2.3 1-1.2c.3-.4.7-.8 1-1.1l3.7-3.8.5-.5.4-.4.8-.9 1.6-1.7.8-.9.2-.2c.1-.1.1-.2.3-.2.2 0 .2.1.3.2l.2.2 1.6 1.7 1.6 1.7.4.4.5.5.9 1 1.9 1.9c.6.7 1.2 1.2 1.9 2l4.2 4.7c.2.2.3.4.5.7l.5.8 1.1 1.5 2.1 3c.9 1.6 1.9 3.1 2.9 4.5l3 4.4c1 1.4 2.1 2.7 3.2 4.1l1.6 2c.3.3.5.7.8 1l.9 1c1.6 1.8 3.2 3.7 4.9 5.4l2.5 2.6 2.6 2.5c13.5 12.9 29.5 23.2 46.8 30.9 17.2 7.8 35.7 13 54.6 15.9 9.4 1.5 19 2.4 28.6 2.9 2.4.1 4.8.2 7.2.2 2.4 0 4.8.1 7.2.1l7.1-.2h1.8l1.8-.1 3.5-.2c4.8-.2 9.4-.9 14.2-1.5 4.7-.8 9.4-1.5 14-2.6 4.7-.9 9.2-2.2 13.8-3.4 4.5-1.5 9.1-2.8 13.5-4.5 2.2-.8 4.5-1.6 6.6-2.6 2.2-.9 4.4-1.8 6.5-2.8l6.4-3.1c1.1-.5 2.1-1.1 3.2-1.6l3.1-1.7c8.3-4.5 16.4-9.6 23.9-15.3 7.5-5.7 14.7-11.9 21.3-18.7 6.6-6.8 12.6-14 18.1-21.7l3.7-5.3c1.2-1.8 2.3-3.7 3.4-5.5l1.7-2.8 1.5-2.8c1-1.9 2.1-3.8 3.1-5.7 3.9-7.7 7.2-15.7 9.9-23.8 2.6-8.2 4.7-16.5 6.2-25 .3-2.1.6-4.2.9-6.4.1-1.1.3-2.1.4-3.2l.3-3.2.3-3.2.1-1.6c0-.3 0-.5.1-.8v-1.1l.1-8.8v-2.5l.1-.8.4-3.1.4-3.1.2-1.5.1-.8c.1-.2 0-.5.2-.7l3.7-2.6 1.8-1.3.9-.7 1.1-.6c2.9-1.5 5.8-3 8.7-4.6l3.8-2.1 3-1.8 3-1.8 3-1.9c7.9-5.2 15.4-10.9 22.3-17.3s13.4-13.3 19.2-20.6c5.8-7.4 11-15.3 15.5-23.5 1.2-2 2.2-4.2 3.2-6.2 1-2.1 2-4.2 3-6.4 1.8-4.3 3.6-8.7 5.1-13.1 3-8.9 5.3-18 6.7-27.3 1.4-9.3 2-18.7 1.8-28-.2-9.4-1.1-18.7-2.9-27.9l.2.4zm-48.4 119.9c-5.2 6.5-10.8 12.6-17 18.2-6.1 5.6-12.8 10.8-19.7 15.3l-2.6 1.7-2.7 1.6c-.9.5-1.8 1.1-2.7 1.6l-4.9 2.7-3.3 1.7-3.3 1.8-6.6 3.5-1.6.9-1.1 1.2-2.2 2.3-4.3 4.7c-.2.3-.3.7-.4 1l-.3 1-.7 2.1-1.4 4.2-1.4 4.2-.3 1V933.1l-.1 12.9v2.4l-.1 1.4-.2 2.8-.2 2.8c-.1.9-.2 1.9-.4 2.8-.3 1.9-.5 3.7-.8 5.6-1.3 7.4-3.1 14.8-5.4 21.9-2.5 7.1-5.3 14.2-8.8 20.9-.8 1.7-1.8 3.3-2.7 5l-1.4 2.5-1.5 2.4c-1 1.6-2 3.3-3 4.8l-3.2 4.7c-19.3 27.3-47.8 48.3-79.7 60.1-4 1.6-8.1 2.7-12.1 4-4.1 1-8.2 2.3-12.4 3.1-4.2 1-8.4 1.6-12.6 2.3-4.2.5-8.5 1.1-12.8 1.3l-3.2.2-1.6.1h-1.6l-6.4.2c-2.2 0-4.5 0-6.7-.1-2.2 0-4.5-.2-6.7-.2-8.9-.4-17.7-1.3-26.4-2.7-17.3-2.7-34.1-7.5-49.5-14.4-15.4-6.9-29.4-16-41.1-27.1l-2.3-2.2-2.2-2.3c-1.5-1.5-2.8-3.1-4.2-4.6l-.4-.4-.2-.2-.1-.1-.2-.2-.6-.8c-.4-.5-.8-1.1-1.2-1.6l-2.4-3.1c-1.6-2.1-3.2-4.2-4.7-6.3l-4.3-7.2c-1.4-2.4-2.9-4.8-4.2-7.5l-3.3-4.5-1.7-2.3-.8-1.1-.4-.6-.1-.1-.1-.1-.2-.2-6.9-4.7-.9-.6c-.1 0-.2-.1-.2-.1l-.2-.1-.4-.1-1.5-.5-2.9-.9-1.5-.5c-.2-.1-.5-.2-.7-.2h-.5l-2.2-.2-2.2-.2H639l-1.1.1-2.2.2-1.1.1h-.5c-.2 0-.5.2-.7.2l-5.8 1.8-.4.1-.2.1-.2.1-.9.6-1.7 1.2-3.4 2.3-1.7 1.2c-.3.1-.6.6-.8 1l-.8 1.2-3.2 4.8-3.2 4.8-3 5.2c-3.9 7.2-8.5 12.8-13 18.8l-3.4 3.8-3.1 3.2c-1 1.1-2.1 2.1-3.2 3.1-1.1 1.1-2.2 2-3.3 3-6.1 5.3-12.7 10.2-19.8 14.5-7.1 4.3-14.6 8.1-22.4 11.3-15.7 6.5-32.6 10.8-50 13.1-8.7 1.2-17.6 1.9-26.5 2.1l-6.7.1-6.4-.2c-1.1 0-2.1 0-3.2-.1l-3.2-.2-3.2-.2c-1.1-.1-2.1-.1-3.2-.3l-6.4-.8c-2.1-.2-4.2-.7-6.3-1l-3.2-.5-3.1-.7c-2.1-.5-4.2-.8-6.2-1.4-8.3-2-16.4-4.7-24.3-7.8-15.7-6.4-30.6-14.9-43.7-25.6l-2.5-2-1.2-1-1.2-1-4.7-4.2-4.5-4.4-1.1-1.1-1.1-1.2-2.1-2.3-2.1-2.3-2-2.4-2-2.4-1-1.2-1-1.2-3.8-5-3.5-5.2c-3.9-6-7.6-12.2-10.6-18.7l-1.2-2.4c-.4-.8-.7-1.6-1.1-2.5l-2.1-4.9-1.8-5c-.3-.8-.6-1.7-.9-2.5l-.8-2.5c-2.2-6.8-3.6-13.8-4.9-20.7-.4-3.5-1-7-1.2-10.6l-.2-2.7-.1-1.3V945l-.1-12.1v-3.1c0-.3 0-.7-.1-1l-1.1-3.4-2.3-6.4-.6-1.7-.3-.8c-.1-.1-.1-.3-.1-.4-.1-.1-.1-.3-.2-.4l-2.4-2.6-4.7-5.2c-.3-.4-.9-.7-1.5-1l-1.6-.9-3.3-1.8c-2.2-1.2-4.4-2.3-6.6-3.5-1.1-.6-2.2-1.1-3.3-1.7l-2.9-1.6c-.9-.5-1.8-1-2.7-1.6-1.8-1.1-3.6-2.1-5.3-3.3l-2.6-1.7-2.6-1.8c-6.8-4.8-13.3-10.1-19.2-16-5.9-5.8-11.4-12.1-16.3-18.8-4.9-6.7-9.2-13.7-12.9-21.1-1-1.8-1.8-3.7-2.7-5.6-.9-1.9-1.6-3.8-2.4-5.7-.7-1.9-1.5-3.8-2.1-5.8-.6-2-1.3-3.9-1.9-5.8-2.4-7.8-4-15.9-5-24s-1.1-16.4-.7-24.6 1.6-16.3 3.5-24.3c.3-1.4.7-2.7 1-4l1.1-4 1.3-4 .6-2c.2-.7.5-1.3.7-2l1.5-3.9c.5-1.3 1.1-2.5 1.6-3.8 1-2.6 2.3-5 3.5-7.6.6-1.3 1.3-2.5 1.9-3.7.7-1.2 1.3-2.5 2-3.7l2.2-3.6c.4-.6.7-1.2 1.1-1.8l1.2-1.7 2.3-3.5 2.5-3.4 1.2-1.7.2-.2.1-.1s0-.1.1-.2l.8-.9 1.5-1.8 6.2-7.3.8-.9c.3-.3.6-.6.7-1l.9-2 1.8-3.9 1.8-3.9.9-2c.1-.3.3-.6.4-1 .1-.3.1-.7.1-1l.4-4.1.1-1c0-.4-.1-.8-.1-1.1l-.3-2.2-.3-2.2c-.1-.4-.1-.8-.2-1.1l-.4-1.2-1.5-4.6c-.5-1.5-1-3.1-1.5-4.6l-.7-2.3-.4-1.2-.2-.6-.2-.8c-.3-1.3-.7-2.5-1-3.8-.6-2.5-1.2-5.1-1.6-7.7-1.4-8-2.1-16-2-24.2.2-4 .1-8.1.7-12.1l.3-3c.1-1 .2-2 .4-3l1-6c.3-2 .9-3.9 1.3-5.9l.7-2.9.3-1.5c.1-.5.3-1 .4-1.5l1.8-5.8c.2-.5.3-1 .5-1.4l.6-1.4 1.1-2.8c1.3-3.8 3.2-7.4 4.9-11.1.9-1.8 2-3.5 2.9-5.3l1.5-2.7c.5-.9 1.1-1.7 1.6-2.6l2-3.1 1-1.5c.3-.5.7-1 1.1-1.5l4.3-5.9 4.7-5.6c.8-1 1.6-1.8 2.5-2.7l2.5-2.7c1.6-1.8 3.5-3.4 5.3-5.1l2.7-2.5c.9-.8 1.9-1.5 2.8-2.3l2.8-2.3 1.4-1.2 1.5-1.1 5.5-3.9 7.7-4.8 7.1-7.8 3.6-3.9.9-1 .4-.5.2-.2.1-.3.9-2.2c1.1-3 1.8-6.5 1.8-10.3.1-3.8-1-8-1.5-11.9-.2-1-.2-2-.4-3l-.2-1.5-.1-1.4-.2-2.1-.1-1.2c-.1-1.6-.1-3.2-.2-4.8v-4.8l.1-2.4.2-2.4c.5-7.9 1.8-15.8 3.8-23.4 2.1-7.6 4.9-15.1 8.5-22.2 3.5-7.1 7.8-13.9 12.7-20.3s10.4-12.3 16.4-17.7c7.1-6.3 14.8-11.9 23-16.6 4.1-2.4 8.4-4.5 12.7-6.4l3.3-1.4.8-.3.9-.3 1.8-.7 1.8-.7.9-.3c.1 0 .5-.2.9-.3l1-.3 8.3-2.6 1.5-.5.7-.2c.3-.1.5-.2.7-.3l2.4-1.5 4.8-3 2.4-1.5c.2-.1.4-.2.6-.4.2-.1.3-.4.4-.6l.8-1.2 3.1-4.8 1.6-2.4.8-1.2c.2-.4.6-.7.7-1.3l2.1-5.8 2.1-5.8.3-.7.1-.3.1-.2.3-.6.5-1.2c2.7-6.7 5.7-13.2 9.1-19.4 4.1-7.5 8.6-14.6 13.6-21.3 5-6.7 10.5-12.9 16.4-18.4 11.8-11.1 25.2-19.5 39.4-24.2 3.5-1.2 7.1-2.1 10.8-2.9l2.7-.5 1.4-.2 1.4-.2 2.7-.4 2.8-.2c1.8-.2 3.7-.2 5.5-.2h3l3.1.1h1.5l1.5.1 3 .2c1 .1 2 .1 3 .2l3 .4c7.9 1 15.6 2.8 22.8 5.3 7.2 2.5 13.9 5.9 20.2 10 3.8 2.4 7.3 5.2 10.8 8.2.4.4.9.7 1.3 1.1l1.2 1.2 2.4 2.3c1 .9 2 2.1 3 3.2l1.5 1.7.8.8.7 1 2.8 3.8 5.6 7.7 1.7 2.3.4.6c.1.2.3.3.4.4l.9.7 3.6 2.7c2.4 1.7 4.8 3.4 7.2 5l.5.3c.1.1.3.2.4.2l.7.1 1.4.3 2.8.5 2.8.5 1.4.3.7.1c.1 0 .2.1.3.1h.5l5.7-1.1 2.8-.5c1-.2 1.8-.1 3.1-1.1 2.4-1.6 4.8-3.3 7.2-5 1.2-.9 2.4-1.8 3.5-2.7.3-.2.6-.4.9-.7l.8-1.1 1.7-2.2 6.6-9c1.1-1.5 2.2-3.1 3.4-4.3l1.8-2 .9-1c.3-.3.6-.7.9-.9l1.8-1.7 1.2-1.2 1.4-1.4 3-2.6c2-1.8 4.1-3.2 6.2-4.8 1-.8 2.2-1.4 3.3-2.2l3.3-2.1c12.9-7.6 27.9-11.9 44-13.4 2-.1 4-.3 6.1-.4l6.2-.2c1 0 1.9.1 2.8.1.9 0 1.8 0 2.8.1 1.8.1 3.7.2 5.5.5 3.7.4 7.3 1.2 10.9 2l2.7.8 1.3.4 1.3.5 2.7.9 2.6 1c14 5.5 27.2 14.6 38.7 26.2 5.8 5.8 11 12.2 15.8 19 4.8 6.9 9.2 14.2 13 21.8.9 1.8 1.7 3.5 2.6 5.3l2.4 5.4c.8 1.8 1.5 3.7 2.3 5.5l.1.3.1.2.1.4.6 1.6 1.1 3.2 2.3 6.4.5 1.4c.2.4.5.8.7 1.1l1.4 2.2 2.9 4.4 1.4 2.2.7 1.1.2.2.3.2.5.4 4.4 2.8 4.4 2.8.5.4c.2.1.5.1.7.2l1.4.4 2.8.9 5.5 1.8 2.6.8 1.2.5c1.6.6 3.2 1.2 4.7 1.8l4.3 1.9 4.3 2c1.4.7 2.8 1.5 4.2 2.2 11.1 5.9 21.4 13.3 30.3 22 5.8 5.6 11.1 11.8 15.7 18.3 4.6 6.6 8.7 13.5 11.9 20.8 3.2 7.3 5.8 14.8 7.5 22.5 1.7 7.7 2.7 15.6 2.8 23.6.1 2.8.1 5.5-.1 8.3l-.1 2.1v.5l-.1 1-.2 2.4c-.3 3.4-.8 6.9-1.5 10.4-.8 4.2-.6 8.2.1 11.7.1.4.2.9.3 1.3l.4 1.2.4 1.2c.1.4.3.8.4 1.1l.5 1.1c.1.4.3.8.7 1.1l1.9 2 7.5 8 1.9 2 .9 1c.3.3.6.7 1.1.9l5.3 3.3c.9.5 1.7 1.1 2.5 1.7l2.4 1.7 2.4 1.7c.7.5 1.3 1 2 1.5l2 1.6c1.3 1.1 2.6 2.1 3.9 3.2l3.7 3.5c2.6 2.2 4.8 4.8 7.1 7.2 1.2 1.2 2.3 2.5 3.3 3.8l3.2 3.9c1.1 1.3 2 2.7 3 4l1.5 2c.5.7 1 1.3 1.5 2.1l2.7 4.2 1.4 2.1c.4.7.8 1.5 1.2 2.2l3 5.3c.9 1.8 1.7 3.7 2.6 5.5l1.3 2.7 1.1 2.8c.7 1.9 1.5 3.8 2.2 5.7l1.8 5.8c.3 1 .7 1.9.9 2.9l.7 3 .7 2.9c.2 1 .5 2 .7 3l1 6c.4 2 .5 4 .8 6l.3 3c.1 1 .2 2 .2 3 .1 4.1.4 8.1.2 12.2-.2 8.1-1.2 16.2-3 24-.2.9-.4 1.9-.7 2.8-.2.9-.4 1.9-.7 2.8l-.2.7-.2.7-.3.9-1.1 3.4-1.1 3.4-1.2 3.4-1 3.2c-.2.5-.2 1-.3 1.5l-.2 1.5c-.2 2-.7 4.2-.3 5.9l.2 2.8.1 1.4.1.4.2.3.3.7 2.5 5.3 2.5 5.3c.2.4.4.9.6 1.3l1 1.2 2 2.4 4 4.8c1.2 1.5 3.1 3.6 3.2 4 4.4 5.8 8.3 12 11.8 18.3 7 12.7 11.8 26.5 14.7 40.6 1.6 8 2.4 16.2 2.6 24.4.2 8.2-.4 16.4-1.6 24.5-1.3 8.1-3.2 16.1-5.9 23.8-1.3 3.9-2.8 7.7-4.4 11.5-.9 1.9-1.7 3.7-2.6 5.6-1 1.8-1.8 3.7-2.8 5.5-3.1 7.5-7.7 14.4-12.7 20.9z" class="st4"/>
    <path d="M785.7 312.2v65c0 16.3 13.2 29.5 29.5 29.5h61.3c5.9 8 15.4 13.1 26.1 13.1 17.9 0 32.5-14.6 32.5-32.5s-14.6-32.5-32.5-32.5-32.2 14.3-32.5 32h-54.9c-5.2 0-9.5-4.3-9.5-9.5v-65c13.1-4.2 22.5-16.5 22.5-31 0-17.9-14.6-32.5-32.5-32.5s-32.5 14.6-32.5 32.5c0 14.4 9.4 26.7 22.5 30.9zM1003 805.2v-14.9c0-9.5-3.6-18.5-10.1-25.4L967.6 738c-6.4-6.8-15.4-10.6-24.7-10.6h-59.6v-62.5h-20V776c0 5.2-4.3 9.5-9.5 9.5H785v20h68.8c16.3 0 29.5-13.2 29.5-29.5v-28.6h59.6c3.8 0 7.5 1.6 10.1 4.4l25.4 26.9c3 3.2 4.6 7.3 4.6 11.7v14.9c-13.1 4.2-22.5 16.5-22.5 31 0 17.9 14.6 32.5 32.5 32.5s32.5-14.6 32.5-32.5c.1-14.6-9.4-26.9-22.5-31.1zM287.8 646.9c17.9 0 32.5-14.6 32.5-32.5 0-14.4-9.5-26.7-22.5-30.9V552c0-11.4 9.3-20.7 20.7-20.7h44c4.7 0 9.2 2 12.4 5.5l55.5 61.8 14.9-13.4-55.5-61.8c-6.9-7.7-16.9-12.2-27.3-12.2h-44c-22.4 0-40.7 18.3-40.7 40.7v31.5c-13.1 4.2-22.5 16.5-22.5 31 0 17.9 14.6 32.5 32.5 32.5zM459.8 905.1c-11.9 12.3-18.4 28.6-18.4 45.7v49.3c-13.1 4.2-22.5 16.5-22.5 31 0 17.9 14.6 32.5 32.5 32.5s32.5-14.6 32.5-32.5c0-14.5-9.5-26.7-22.5-31v-49.3c0-11.9 4.5-23.2 12.8-31.8l52-54-14.4-13.9-52 54zM839.2 1000.1v-52.5c0-15.1-5.8-29.3-16.2-40.2l-54.2-56.3-14.4 13.9 54.2 56.3c6.8 7.1 10.6 16.5 10.6 26.3v52.5c-13.1 4.2-22.5 16.5-22.5 31 0 17.9 14.6 32.5 32.5 32.5s32.5-14.6 32.5-32.5c0-14.5-9.5-26.8-22.5-31zM884.7 519.1l-59.3 66.1 14.9 13.4 59.3-66.1c.7-.8 1.7-1.2 2.8-1.2h66.7c2.1 0 3.8 1.7 3.8 3.8v48.5c-13.1 4.2-22.5 16.5-22.5 31 0 17.9 14.6 32.5 32.5 32.5s32.5-14.6 32.5-32.5c0-14.4-9.5-26.7-22.5-30.9v-48.5c0-13.1-10.7-23.8-23.8-23.8h-66.7c-6.8-.2-13.2 2.7-17.7 7.7zM499.2 805.5v-20h-68.8c-5.2 0-9.5-4.3-9.5-9.5V664.9h-20v62.5h-64.1c-8.6 0-16.9 3.6-22.8 9.8l-25.7 27.2c-6.8 7.2-10.5 16.5-10.5 26.4v14.3c-13.1 4.2-22.5 16.5-22.5 31 0 17.9 14.6 32.5 32.5 32.5s32.5-14.6 32.5-32.5c0-14.5-9.5-26.7-22.5-31v-14.3c0-4.7 1.8-9.2 5-12.7l25.7-27.2c2.1-2.3 5.2-3.6 8.3-3.6h64.1V776c0 16.3 13.2 29.5 29.5 29.5h68.8z" class="st4"/>
  </g>
</svg>